<svg width="720" height="420" viewBox="0 0 720 420" fill="none" xmlns="http://www.w3.org/2000/svg">
  <rect width="720" height="420" rx="36" fill="#09090B"/>
  <rect x="20" y="20" width="680" height="380" rx="28" fill="url(#bg)"/>
  <circle cx="580" cy="98" r="82" fill="#FBBF24" fill-opacity="0.18"/>
  <circle cx="124" cy="318" r="86" fill="#22C55E" fill-opacity="0.14"/>
  <rect x="92" y="88" width="252" height="244" rx="24" fill="#111827" fill-opacity="0.94" stroke="#334155" stroke-width="2"/>
  <rect x="118" y="114" width="64" height="192" rx="20" fill="#0F172A"/>
  <rect x="196" y="156" width="64" height="150" rx="20" fill="#0F172A"/>
  <rect x="274" y="134" width="44" height="172" rx="20" fill="#0F172A"/>
  <rect x="134" y="178" width="32" height="112" rx="16" fill="#38BDF8"/>
  <rect x="212" y="204" width="32" height="86" rx="16" fill="#FBBF24"/>
  <rect x="280" y="164" width="32" height="126" rx="16" fill="#22C55E"/>
  <path d="M124 150C160 126 196 118 236 130C266 138 288 122 320 100" stroke="#F8FAFC" stroke-width="8" stroke-linecap="round"/>
  <path d="M300 98L320 100L308 116" stroke="#F8FAFC" stroke-width="8" stroke-linecap="round" stroke-linejoin="round"/>
  <rect x="392" y="108" width="240" height="212" rx="28" fill="#111827" fill-opacity="0.92" stroke="#334155" stroke-width="2"/>
  <circle cx="470" cy="194" r="42" fill="#0F172A"/>
  <circle cx="470" cy="194" r="22" fill="#FBBF24"/>
  <path d="M470 152V132" stroke="#F8FAFC" stroke-width="8" stroke-linecap="round"/>
  <path d="M470 256V236" stroke="#F8FAFC" stroke-width="8" stroke-linecap="round"/>
  <path d="M512 194H532" stroke="#F8FAFC" stroke-width="8" stroke-linecap="round"/>
  <path d="M408 194H428" stroke="#F8FAFC" stroke-width="8" stroke-linecap="round"/>
  <path d="M500 164L514 150" stroke="#38BDF8" stroke-width="8" stroke-linecap="round"/>
  <path d="M426 238L440 224" stroke="#38BDF8" stroke-width="8" stroke-linecap="round"/>
  <path d="M500 224L514 238" stroke="#22C55E" stroke-width="8" stroke-linecap="round"/>
  <path d="M426 150L440 164" stroke="#22C55E" stroke-width="8" stroke-linecap="round"/>
  <rect x="540" y="146" width="62" height="12" rx="6" fill="#F8FAFC"/>
  <rect x="540" y="168" width="72" height="8" rx="4" fill="#64748B"/>
  <rect x="540" y="212" width="56" height="12" rx="6" fill="#F8FAFC"/>
  <rect x="540" y="234" width="66" height="8" rx="4" fill="#64748B"/>
  <rect x="426" y="278" width="176" height="10" rx="5" fill="#0F172A"/>
  <rect x="426" y="278" width="118" height="10" rx="5" fill="#38BDF8"/>
  <defs>
    <linearGradient id="bg" x1="30" y1="30" x2="690" y2="390" gradientUnits="userSpaceOnUse">
      <stop stop-color="#1F1729"/>
      <stop offset="0.54" stop-color="#09090B"/>
      <stop offset="1" stop-color="#0F172A"/>
    </linearGradient>
  </defs>
</svg>
