<svg width="720" height="420" viewBox="0 0 720 420" fill="none" xmlns="http://www.w3.org/2000/svg">
  <rect width="720" height="420" rx="36" fill="#09090B"/>
  <rect x="20" y="20" width="680" height="380" rx="28" fill="url(#bg)"/>
  <circle cx="598" cy="96" r="80" fill="#38BDF8" fill-opacity="0.14"/>
  <circle cx="118" cy="310" r="92" fill="#FBBF24" fill-opacity="0.12"/>
  <rect x="90" y="88" width="280" height="236" rx="24" fill="#111827" fill-opacity="0.94" stroke="#334155" stroke-width="2"/>
  <rect x="90" y="88" width="280" height="54" rx="24" fill="#0F172A"/>
  <path d="M146 70V108" stroke="#FBBF24" stroke-width="10" stroke-linecap="round"/>
  <path d="M314 70V108" stroke="#FBBF24" stroke-width="10" stroke-linecap="round"/>
  <rect x="118" y="172" width="44" height="34" rx="10" fill="#FBBF24"/>
  <rect x="176" y="172" width="44" height="34" rx="10" fill="#1E293B"/>
  <rect x="234" y="172" width="44" height="34" rx="10" fill="#38BDF8"/>
  <rect x="292" y="172" width="44" height="34" rx="10" fill="#1E293B"/>
  <rect x="118" y="220" width="44" height="34" rx="10" fill="#1E293B"/>
  <rect x="176" y="220" width="44" height="34" rx="10" fill="#22C55E"/>
  <rect x="234" y="220" width="44" height="34" rx="10" fill="#1E293B"/>
  <rect x="292" y="220" width="44" height="34" rx="10" fill="#FBBF24"/>
  <rect x="118" y="268" width="44" height="34" rx="10" fill="#38BDF8"/>
  <rect x="176" y="268" width="44" height="34" rx="10" fill="#1E293B"/>
  <rect x="234" y="268" width="44" height="34" rx="10" fill="#FBBF24"/>
  <rect x="292" y="268" width="44" height="34" rx="10" fill="#1E293B"/>
  <rect x="414" y="110" width="214" height="110" rx="24" fill="#111827" fill-opacity="0.92" stroke="#334155" stroke-width="2"/>
  <path d="M460 196L496 150L534 178L584 132" stroke="#F8FAFC" stroke-width="8" stroke-linecap="round" stroke-linejoin="round"/>
  <path d="M572 132H584V144" stroke="#F8FAFC" stroke-width="8" stroke-linecap="round" stroke-linejoin="round"/>
  <rect x="414" y="242" width="214" height="82" rx="24" fill="#111827" fill-opacity="0.92" stroke="#334155" stroke-width="2"/>
  <path d="M476 258C450 258 430 278 430 304C430 334 468 356 518 388C568 356 606 334 606 304C606 278 586 258 560 258C542 258 528 266 518 280C508 266 494 258 476 258Z" fill="#FBBF24"/>
  <circle cx="518" cy="304" r="16" fill="#09090B"/>
  <circle cx="518" cy="304" r="7" fill="#F8FAFC"/>
  <defs>
    <linearGradient id="bg" x1="30" y1="30" x2="690" y2="390" gradientUnits="userSpaceOnUse">
      <stop stop-color="#172033"/>
      <stop offset="0.55" stop-color="#09090B"/>
      <stop offset="1" stop-color="#20111C"/>
    </linearGradient>
  </defs>
</svg>
