<svg width="720" height="420" viewBox="0 0 720 420" fill="none" xmlns="http://www.w3.org/2000/svg">
  <rect width="720" height="420" rx="36" fill="#09090B"/>
  <rect x="20" y="20" width="680" height="380" rx="28" fill="url(#bg)"/>
  <circle cx="618" cy="94" r="72" fill="url(#glow)" fill-opacity="0.7"/>
  <circle cx="128" cy="318" r="90" fill="#0EA5E9" fill-opacity="0.14"/>
  <rect x="86" y="86" width="548" height="248" rx="22" fill="#0F172A" fill-opacity="0.92" stroke="#334155" stroke-width="2"/>
  <rect x="108" y="112" width="504" height="26" rx="13" fill="#111827"/>
  <circle cx="132" cy="125" r="5" fill="#FBBF24"/>
  <circle cx="150" cy="125" r="5" fill="#F59E0B"/>
  <circle cx="168" cy="125" r="5" fill="#38BDF8"/>
  <rect x="114" y="164" width="162" height="136" rx="18" fill="#111827" stroke="#1E293B" stroke-width="2"/>
  <rect x="304" y="164" width="132" height="62" rx="16" fill="#111827" stroke="#1E293B" stroke-width="2"/>
  <rect x="454" y="164" width="136" height="62" rx="16" fill="#111827" stroke="#1E293B" stroke-width="2"/>
  <rect x="304" y="238" width="286" height="62" rx="16" fill="#111827" stroke="#1E293B" stroke-width="2"/>
  <path d="M148 208L126 232L148 256" stroke="#FBBF24" stroke-width="10" stroke-linecap="round" stroke-linejoin="round"/>
  <path d="M240 208L262 232L240 256" stroke="#FBBF24" stroke-width="10" stroke-linecap="round" stroke-linejoin="round"/>
  <path d="M192 270L216 194" stroke="#38BDF8" stroke-width="10" stroke-linecap="round"/>
  <rect x="324" y="182" width="54" height="10" rx="5" fill="#F8FAFC"/>
  <rect x="324" y="200" width="84" height="8" rx="4" fill="#64748B"/>
  <rect x="470" y="182" width="70" height="10" rx="5" fill="#F8FAFC"/>
  <rect x="470" y="200" width="96" height="8" rx="4" fill="#64748B"/>
  <rect x="324" y="256" width="110" height="10" rx="5" fill="#F8FAFC"/>
  <rect x="324" y="275" width="146" height="8" rx="4" fill="#64748B"/>
  <rect x="482" y="256" width="84" height="8" rx="4" fill="#38BDF8" fill-opacity="0.85"/>
  <path d="M558 312L588 344" stroke="#FBBF24" stroke-width="7" stroke-linecap="round"/>
  <circle cx="594" cy="350" r="14" stroke="#FBBF24" stroke-width="7"/>
  <path d="M542 114H580" stroke="#FBBF24" stroke-width="8" stroke-linecap="round"/>
  <path d="M542 132H604" stroke="#38BDF8" stroke-width="8" stroke-linecap="round"/>
  <path d="M542 150H590" stroke="#F8FAFC" stroke-opacity="0.7" stroke-width="8" stroke-linecap="round"/>
  <defs>
    <linearGradient id="bg" x1="40" y1="40" x2="680" y2="380" gradientUnits="userSpaceOnUse">
      <stop stop-color="#111827"/>
      <stop offset="0.52" stop-color="#09090B"/>
      <stop offset="1" stop-color="#172554"/>
    </linearGradient>
    <radialGradient id="glow" cx="0" cy="0" r="1" gradientUnits="userSpaceOnUse" gradientTransform="translate(618 94) rotate(90) scale(72)">
      <stop stop-color="#FBBF24"/>
      <stop offset="1" stop-color="#FBBF24" stop-opacity="0"/>
    </radialGradient>
  </defs>
</svg>
